<?xml version="1.0" encoding="utf-8"?>
<!-- Generator: Adobe Illustrator 25.2.3, SVG Export Plug-In . SVG Version: 6.00 Build 0)  -->
<svg version="1.1" id="Layer_1" xmlns="http://www.w3.org/2000/svg" xmlns:xlink="http://www.w3.org/1999/xlink" x="0px" y="0px" viewBox="0 0 600 600" style="enable-background:new 0 0 600 600;" xml:space="preserve">
	<style type="text/css">
		.st0 {
			fill: #1E90FF;
		}

		.st1 {
			fill: #00FA9A;
		}

	</style>
	<g>
		<path class="st0" d="M0,239.6L143.9,70.3H4.9V0h248.8v60.4L109.8,229.7h143.9V300H0V239.6z" />
		<path class="st0" d="M295.1,0h84l68.4,116.1L516,0h84v300h-79.1V127.7l-73.4,117.4h-1.6l-73-116.6V300h-77.9L295.1,0L295.1,0z" />
		<path class="st1" d="M0,300h115.5c107,0,169,61.7,169,148.3v0.9c0,86.6-62.9,150.9-170.8,150.9H0V300z M116.8,526.3c49.6,0,82.6-27.4,82.6-75.9v-0.9c0-48-32.9-75.9-82.6-75.9H83v152.6L116.8,526.3L116.8,526.3z" />
		<path class="st1" d="M327.4,300h83v112.3H517V300h83v300h-83V486H410.4v114h-83L327.4,300L327.4,300z" />
	</g>
</svg>
