<?xml version="1.0" encoding="utf-8"?>
<!-- Generator: Adobe Illustrator 26.0.2, SVG Export Plug-In . SVG Version: 6.00 Build 0)  -->
<svg version="1.1" id="Layer_1" xmlns="http://www.w3.org/2000/svg" xmlns:xlink="http://www.w3.org/1999/xlink" x="0px" y="0px" viewBox="0 0 1200 300" style="enable-background:new 0 0 1200 300;" xml:space="preserve">
	<g>
		<path d="M0,239.57L140.87,70.29H4.82V0h243.61v60.43L107.56,229.71h140.87V300H0V239.57z" />
		<path d="M288.96,0h82.27l67.02,116.14L505.28,0h82.27v300H510.1V127.71l-71.84,117.43h-1.61l-71.44-116.57V300h-76.25V0z" />
		<path d="M637.32,0h108.36c100.34,0,158.53,61.71,158.53,148.29v0.86c0,86.57-59,150.86-160.13,150.86H637.32V0z M746.89,226.29c46.56,0,77.46-27.43,77.46-75.86v-0.86c0-48-30.9-75.86-77.46-75.86h-31.71v152.57H746.89z" />
		<path d="M944.35,0h77.86v112.29h99.93V0H1200v300h-77.86V186h-99.93v114h-77.86V0z" />
	</g>
</svg>
